HIERARCHY
ROOT Hips
{
  OFFSET 196.326 95.9168 97.7182
  CHANNELS 6 Xposition Yposition Zposition Zrotation Xrotation Yrotation
  JOINT LeftUpLeg
  {
    OFFSET 8.64259 1.95398 -2.38835
    CHANNELS 3 Zrotation Xrotation Yrotation
    JOINT LeftLeg
    {
      OFFSET 43.7702 0 0
      CHANNELS 3 Zrotation Xrotation Yrotation
      JOINT LeftFoot
      {
        OFFSET 40.6238 0 0
        CHANNELS 3 Zrotation Xrotation Yrotation
        JOINT LeftToeBase
        {
          OFFSET 12.7242 0 0
          CHANNELS 3 Zrotation Xrotation Yrotation
          End Site
          {
            OFFSET 0 0 0
          }
        }
      }
    }
  }
  JOINT RightUpLeg
  {
    OFFSET -8.2249 1.95398 -2.59336
    CHANNELS 3 Zrotation Xrotation Yrotation
    JOINT RightLeg
    {
      OFFSET 43.5653 0 0
      CHANNELS 3 Zrotation Xrotation Yrotation
      JOINT RightFoot
      {
        OFFSET 40.6238 0 0
        CHANNELS 3 Zrotation Xrotation Yrotation
        JOINT RightToeBase
        {
          OFFSET 12.7242 0 0
          CHANNELS 3 Zrotation Xrotation Yrotation
          End Site
          {
            OFFSET 0 0 0
          }
        }
      }
    }
  }
  JOINT Spine
  {
    OFFSET 0.165834 0.87714 6.61349
    CHANNELS 3 Zrotation Xrotation Yrotation
    JOINT Spine1
    {
      OFFSET 7.38963 1.71661e-005 0
      CHANNELS 3 Zrotation Xrotation Yrotation
      JOINT Spine2
      {
        OFFSET 11.9445 1.14441e-005 0
        CHANNELS 3 Zrotation Xrotation Yrotation
        JOINT Spine3
        {
          OFFSET 14.7254 4.19617e-005 0
          CHANNELS 3 Zrotation Xrotation Yrotation
          JOINT Spine4
          {
            OFFSET 10.9679 0 0
            CHANNELS 3 Zrotation Xrotation Yrotation
            JOINT RightShoulder
            {
              OFFSET 2.46616 -1.6653 3.69651
              CHANNELS 3 Zrotation Xrotation Yrotation
              JOINT RightArm
              {
                OFFSET 13.0012 0 0
                CHANNELS 3 Zrotation Xrotation Yrotation
                JOINT RightForeArm
                {
                  OFFSET 28.7848 1.52588e-005 0
                  CHANNELS 3 Zrotation Xrotation Yrotation
                  JOINT RightHand
                  {
                    OFFSET 26.5688 1.52588e-005 0
                    CHANNELS 3 Zrotation Xrotation Yrotation
                    End Site
                    {
                      OFFSET 0 0 0
                    }
                  }
                }
              }
            }
            JOINT LeftShoulder
            {
              OFFSET 2.38034 -1.29275 -3.75231
              CHANNELS 3 Zrotation Xrotation Yrotation
              JOINT LeftArm
              {
                OFFSET 16.3182 6.10351e-005 0
                CHANNELS 3 Zrotation Xrotation Yrotation
                JOINT LeftForeArm
                {
                  OFFSET 27.0901 0 0
                  CHANNELS 3 Zrotation Xrotation Yrotation
                  JOINT LeftHand
                  {
                    OFFSET 24.5451 1.52588e-005 0
                    CHANNELS 3 Zrotation Xrotation Yrotation
                    End Site
                    {
                      OFFSET 0 0 0
                    }
                  }
                }
              }
            }
            JOINT Neck
            {
              OFFSET 5.0226 -0.0266342 0
              CHANNELS 3 Zrotation Xrotation Yrotation
              JOINT Head
              {
                OFFSET 6.69363 2.86102e-005 0
                CHANNELS 3 Zrotation Xrotation Yrotation
                End Site
                {
                  OFFSET 0 0 0
                }
              }
            }
          }
        }
      }
    }
  }
}
MOTION
Frames:	9
Frame Time:	0.0416667
-248.479 94.5089 -230.623 59.9726 -46.0698 66.4092 -167.991 45.6954 86.6752 -9.25073 9.38708 -5.84823 37.8104 -12.5449 -0.959447 45.5254 17.3027 -6.07269 162.376 72.3298 109.105 -71.77 -24.2184 -4.73703 88.0017 -11.4975 -7.71292 103.358 74.3415 90.154 1.10091 5.54547 -89.2888 15.774 2.53273 1.0306 4.10516 2.57561 0.918061 -18.4414 2.1059 1.74432 1.57123 2.1059 1.74432 85.0069 -45.8838 -109.785 34.201 -12.7456 21.7838 -29.6002 -1.96502 -100.232 -31.4866 3.09442 -15.8182 -93.1032 -39.3425 70.9506 -51.9274 7.22582 39.9809 7.32735 -0.846366 -76.7775 38.6991 2.75933 3.22806 9.02399 -0.96344 -1.95937 0.576193 -0.382167 2.12299 
-242.724 90.6875 -225.179 68.0815 -54.1279 69.202 -163.431 41.3238 86.1455 -27.0664 16.7096 -9.92192 50.5684 -4.50238 10.3248 39.9809 10.5675 -22.9243 176.792 66.1698 99.3774 -91.7416 -18.4804 -7.24943 99.714 -20.0506 -5.84868 66.8186 67.0196 127.725 1.58287 6.32911 -88.871 14.188 3.68926 1.75103 2.52139 3.76272 1.58679 -20.0347 2.99252 2.77927 -0.0220635 2.99251 2.77926 85.1128 -47.9355 -108.923 37.2103 -17.4979 24.3135 -21.3683 0.0137949 -89.9293 -32.7471 1.02177 -7.31033 -94.9557 -40.5567 68.3129 -47.0814 7.86574 36.1087 7.475 -0.580256 -76.3243 42.2808 3.19954 3.63194 8.40477 -0.674807 -3.60315 0.946958 0.272895 2.54222 
-234.624 88.4147 -218.655 75.8001 -51.2585 75.9189 -163.418 37.6676 83.3383 -42.368 15.9682 -8.83675 62.0161 9.33317 19.9901 44.6885 12.2834 -35.5706 177.733 51.8481 94.5239 -103.947 -7.17939 -6.30586 112.166 -27.4958 -2.3934 33.769 0.595484 160.599 0.840466 6.83534 -88.8042 13.1762 2.24281 2.11104 1.50539 2.33354 2.01031 -21.0215 1.50503 2.68718 -1.00883 1.50501 2.68717 83.7676 -49.7409 -110.363 37.8324 -18.5681 25.3812 -17.2484 2.14192 -83.3012 -28.0701 -2.34924 4.99226 -97.2158 -41.9159 65.1802 -40.2248 7.75532 30.3589 6.96588 -1.01124 -76.4418 39.7659 3.32819 4.47656 9.79246 0.200718 -5.45356 1.56213 1.6509 3.05596 
-226.373 87.3596 -212.857 83.8271 -43.2432 82.3406 -168.738 29.7403 80.9705 -48.5951 16.9493 -4.77311 64.1107 15.3183 25.2598 56.3539 21.3264 -26.9874 170.365 41.8365 94.5244 -109.08 4.67329 -5.8476 86.8352 -16.6345 -5.6992 -87.4548 -45.7042 16.1602 -0.335974 7.59333 -88.7984 11.6821 -0.104914 2.40158 0.00887709 0.000845611 2.40386 -22.5099 -0.821653 2.25917 -2.49722 -0.82166 2.25917 82.9729 -50.8844 -111.161 36.6637 -17.8504 25.3365 -13.2841 -3.78087 -72.6487 -33.1835 -1.65941 1.17029 -100.296 -41.2479 60.024 -33.0865 8.42131 21.4679 6.29809 -0.690935 -73.9475 41.2826 3.00513 3.34964 13.5881 0.30169 -6.88808 0.0841308 2.24188 2.96556 
-218.304 88.1921 -206.089 84.565 -41.7937 84.9095 -170.614 22.0179 83.7965 -47.7311 19.5954 -3.53081 62.8016 15.1009 26.6509 64.8791 29.2596 -21.4577 170.553 45.9621 96.0321 -101.18 14.8825 -5.37451 42.6756 -2.07739 -1.26801 27.5698 -0.911515 11.3105 -0.675716 7.60665 -89.0863 11.665 -0.915479 1.91653 -0.00711109 -0.830266 1.95494 -22.5368 -1.44911 1.5529 -2.52414 -1.4491 1.5529 82.368 -52.5337 -111.479 35.9841 -18.0611 30.2428 -12.4385 -5.49637 -67.8099 -32.97 -1.39177 0.328516 -99.5837 -40.5523 60.8478 -30.6251 8.11482 16.3263 9.49325 -0.87205 -79.0409 39.2382 3.72779 5.65665 12.1823 0.879399 -7.45779 0.412402 2.93087 3.92861 
-209.577 91.1154 -198.526 85.1185 -41.0458 87.2026 -172.413 12.1839 87.6923 -41.1801 22.2272 -2.035 58.5432 6.24254 17.3167 69.2558 34.667 -16.8098 172.911 46.4686 96.0639 -85.6305 13.9861 -3.41636 46.5536 -1.28125 -0.578691 31.6636 -0.582302 20.3351 -0.95255 7.4962 -89.4049 11.8901 -1.61397 1.35933 0.219367 -1.5526 1.42904 -22.3212 -1.94787 0.811351 -2.30856 -1.94787 0.811349 82.4926 -53.4572 -110.985 36.6691 -17.9896 36.37 -13.0285 -6.63811 -66.165 -24.5786 -1.48495 2.64456 -97.8205 -39.628 63.2873 -31.4623 7.67594 13.6662 13.1853 -2.08311 -86.151 39.124 4.20992 6.95714 9.96969 1.6234 -8.19454 0.265078 3.78356 5.5291 
-200.808 93.6058 -190.462 85.5539 -39.5309 87.5898 -173.546 1.55639 88.4524 -32.223 27.0888 -0.661361 47.8685 -5.32303 7.18472 73.0966 39.2557 -14.1835 175.727 43.9694 93.7577 -66.1387 6.00415 -1.08239 51.4444 0.227237 0.469278 33.9432 0.284256 8.29638 -1.33318 7.35588 -89.6324 12.1751 -2.47596 1.00914 0.506029 -2.42915 1.11717 -22.0478 -2.6647 0.217874 -2.03513 -2.66471 0.21787 83.5394 -51.6626 -110.061 38.46 -16.1348 41.3567 -15.2588 -9.38978 -63.7768 -27.9434 -0.900985 -0.752835 -96.7509 -39.0634 64.8056 -33.7997 8.11181 12.6908 14.7104 -3.57732 -91.3585 37.5297 4.14214 7.25741 8.67907 2.56405 -7.21002 -0.237821 4.41398 6.31943 
-192.053 95.2335 -182.096 83.935 -39.155 87.3681 -173.039 -3.88572 93.3047 -24.8336 30.1679 0.16233 37.8896 -12.6354 0.711792 39.3264 9.8111 -21.3389 178.494 39.6064 92.4869 -39.7706 9.1855 1.33403 49.6997 1.2108 1.29311 35.9871 0.435035 12.8173 -1.50432 7.04725 -89.8801 12.7915 -2.92993 0.590063 1.12373 -2.90113 0.718542 -21.4381 -2.9717 -0.318588 -1.42542 -2.9717 -0.318582 85.1028 -51.1512 -107.908 39.3205 -15.1595 45.8352 -15.4912 -9.27513 -62.7748 -23.6578 -0.885876 -0.2027 -96.1015 -38.451 65.6323 -36.1009 9.6494 13.8512 13.6616 -5.76418 -98.3169 37.2254 3.47417 5.49262 9.18127 2.8525 -7.87272 -2.33326 4.81803 7.79335 
-183.297 95.7966 -173.976 82.4753 -36.4054 85.6601 -173.156 -6.6974 94.0289 -25.7034 25.3575 1.122 31.7435 -15.6475 -1.21974 17.6212 -8.81534 -12.9124 -179.939 34.1869 89.4054 -13.7799 10.4729 2.0138 43.7697 2.94246 3.02803 31.4776 -0.241328 10.3638 -1.94193 6.83421 -89.9881 13.2217 -3.8481 0.504656 1.55625 -3.82216 0.673763 -21.024 -3.8216 -0.676927 -1.01134 -3.8216 -0.676949 87.0136 -49.2887 -105.582 40.116 -14.1027 48.1923 -16.2969 -10.0419 -61.7672 -23.2895 -0.605488 -1.57009 -96.269 -38.2333 65.2672 -37.0411 10.8962 14.8203 17.2179 -8.65222 -104.381 34.4382 4.1158 8.22494 12.5136 2.97357 -7.46768 -5.0497 4.86967 8.22472 
